<svg width="165" height="44" viewBox="0 0 165 44" fill="none" xmlns="http://www.w3.org/2000/svg">
<g clip-path="url(#clip0_3655_664)">
<path d="M153.379 27.6102V12.7162H149.263L146.754 15.294V17.3756H149.263V22.2694V27.6102H147.117V31.853H155.516V27.6102H153.379Z" fill="black"/>
<path d="M138.723 12.1537C134.808 12.1537 131.621 15.4093 131.621 19.4479C131.621 23.452 134.808 26.7201 138.723 26.7201H138.891L136.288 31.8535H140.411L144.571 23.6608L144.849 23.1069C145.496 21.9963 145.836 20.7333 145.834 19.4479C145.834 15.4098 142.639 12.1537 138.723 12.1537H138.723ZM138.723 22.9656C138.022 22.9829 137.331 22.7907 136.74 22.4136C136.149 22.0366 135.684 21.4917 135.404 20.8487C135.123 20.2057 135.042 19.4938 135.168 18.804C135.295 18.1142 135.624 17.4778 136.115 16.9763C136.605 16.4747 137.233 16.1308 137.92 15.9884C138.607 15.846 139.32 15.9117 139.969 16.177C140.618 16.4422 141.174 16.8951 141.564 17.4777C141.955 18.0603 142.163 18.7461 142.161 19.4474C142.17 20.3692 141.813 21.2569 141.169 21.9162C140.525 22.5755 139.645 22.9529 138.724 22.9656" fill="black"/>
<path d="M46.82 2.09949H38.0664V41.9007H46.82V2.09949Z" fill="black"/>
<path d="M12.0844 2.09949C5.52032 2.09949 0.195841 7.54957 0.195841 14.2949C0.191323 17.0893 1.13326 19.8028 2.86813 21.9933C1.20116 24.0856 0 26.7816 0 29.7179C0 36.4559 5.42301 41.9002 11.9974 41.9002H30.2978V2.09949H12.0844ZM12.0844 11.0549H21.5607V17.7127H12.0844C10.3508 17.7127 8.93296 16.1658 8.93296 14.3834C8.93296 12.6072 10.3508 11.0549 12.0844 11.0549ZM21.5607 32.9398H11.9974C10.2491 32.9398 8.8428 31.3935 8.8428 29.6087C8.8428 27.8238 10.2491 26.2741 11.9974 26.2741H21.5607V32.9398Z" fill="black"/>
<path d="M111.892 41.9007H120.637L111.662 2.09998H94.6334L85.668 41.9007H94.4068L96.6947 31.7512H109.604L111.892 41.9007ZM98.6633 22.987L101.36 11.0544H104.945L107.626 22.987H98.6633Z" fill="black"/>
<path d="M84.6915 17.0238C84.6915 8.77729 78.1764 2.10059 70.1265 2.10059H54.5859V41.9001H63.3429V31.7495H70.3437L72.652 41.8994H81.3779L78.5009 29.1092C80.4299 27.7423 82.0003 25.9296 83.0782 23.8253C84.1562 21.721 84.7099 19.3874 84.6922 17.0231L84.6915 17.0238ZM63.3436 11.0536H70.1273C70.8969 11.0509 71.6592 11.2037 72.3683 11.5028C73.0775 11.8019 73.7189 12.2412 74.2542 12.7944C75.3509 13.9281 75.9612 15.4456 75.9549 17.0231C75.9669 17.7754 75.8265 18.5224 75.542 19.219C75.2575 19.9156 74.8349 20.5473 74.2996 21.076C73.754 21.626 73.1036 22.0609 72.387 22.3552C71.6704 22.6495 70.9021 22.7971 70.1275 22.7893H63.3429L63.3436 11.0536Z" fill="black"/>
<path d="M165.002 22.0008H160.816C160.828 18.809 159.987 15.6721 158.379 12.9148L161.987 10.7911C163.973 14.1921 165.014 18.0622 165.002 22.0008Z" fill="#00359C"/>
<path d="M158.379 12.9148C157.358 11.1737 156.034 9.62942 154.469 8.3549L157.111 5.10767C159.062 6.69609 160.713 8.62092 161.987 10.7911L158.379 12.9148Z" fill="#008E3D"/>
<path d="M154.467 8.35541C151.489 5.92996 147.759 4.61797 143.918 4.64495C142.233 4.64137 140.556 4.88873 138.944 5.3789L137.719 1.3757C139.728 0.764018 141.817 0.454833 143.917 0.458308C148.721 0.427626 153.386 2.07164 157.109 5.10771L154.467 8.35541Z" fill="#FF742A"/>
<path d="M134.463 7.53705L132.098 4.08272C133.823 2.90069 135.718 1.98792 137.717 1.37573L138.942 5.37893C137.348 5.86705 135.838 6.59474 134.463 7.53705Z" fill="#FFE500"/>
<path d="M129.501 12.8499L125.902 10.7107C127.466 8.07963 129.581 5.81838 132.102 4.08228L134.466 7.53662C132.447 8.92855 130.753 10.7412 129.501 12.8499Z" fill="#1BC3CD"/>
<path d="M127.022 22.0003H122.836C122.824 18.0299 123.883 14.1298 125.901 10.7106L129.498 12.8508C127.866 15.6226 127.01 18.7833 127.022 22.0003Z" fill="#562293"/>
<path d="M143.919 43.5419C132.097 43.5419 122.836 34.0798 122.836 22.0004H127.022C127.022 31.7323 134.444 39.3553 143.919 39.3553C153.394 39.3553 160.815 31.7323 160.815 22.0004H165.001C165.001 34.0798 155.741 43.5419 143.919 43.5419Z" fill="#E60025"/>
</g>
<defs>
<clipPath id="clip0_3655_664">
<rect width="165" height="43.0833" fill="white" transform="translate(0 0.458374)"/>
</clipPath>
</defs>
</svg>
